# xmcd
#
# Track frame offsets:
#	150
#	14944
#	33855
#	52712
#	69574
#	84469
#	102680
#	121120
#	134987
#	153267
#	168951
#	187109
#	204762
#	219527
#	239353
#	257010
#	273108
#	292310
#	304914
#
# Disc length: 4275 seconds
#
# Revision: 1
# Processed by: cddbd v1.5.2PL0 Copyright (c) Steve Scherf et al.
# Submitted via: audiograbber 1.83.01
#
DISCID=1a10b113
DTITLE=WMA 12 - WMA 12 CD 2
DYEAR=2012
DGENRE=Pop
TTITLE0=Train - Drive By
TTITLE1=Fun Feat. Janelle Monàe - We Are Young
TTITLE2=Young The Giant - Cough Syrup
TTITLE3=The Black Keys - Gold On The Ceiling
TTITLE4=One Direction - One Thing
TTITLE5=Coldplay - Every Teardrop Is A Waterfall
TTITLE6=Kasabian - Goodbye Kiss
TTITLE7=Ed Sheeran - Lego House
TTITLE8=David Guetta Feat. Sia - Titanium
TTITLE9=Snoop Dogg and Wiz Khalifa Feat. Bruno Mars - Young, Wild and Free
TTITLE10=Jason Derulo - Fight For You
TTITLE11=Simple Plan Feat. Sean Paul - Summer Paradise
TTITLE12=Emili Dandé - Next To Me
TTITLE13=Noel Gallagher - AKA... What A Life!
TTITLE14=Flo Rida Feat. Sia - Wild Ones
TTITLE15=B.o.B - So Good
TTITLE16=Planet Funk - These Boots Are Made For Walkin'
TTITLE17=Michel Teló - Ai Se Eu Te Pego
TTITLE18=Tacabro - Tacatà
EXTD=
EXTT0=
EXTT1=
EXTT2=
EXTT3=
EXTT4=
EXTT5=
EXTT6=
EXTT7=
EXTT8=
EXTT9=
EXTT10=
EXTT11=
EXTT12=
EXTT13=
EXTT14=
EXTT15=
EXTT16=
EXTT17=
EXTT18=
PLAYORDER=
